<svg width="1440" height="986" viewBox="0 0 1440 986" fill="none" xmlns="http://www.w3.org/2000/svg">
<g clip-path="url(#clip0_1276_2171)">
<rect width="1440" height="986" fill="url(#paint0_linear_1276_2171)"/>
<rect x="1349.59" y="272.73" width="3.25833" height="3.25833" transform="rotate(-32.8977 1349.59 272.73)" fill="white" fill-opacity="0.5"/>
<rect x="1420.29" y="252.509" width="6.5806" height="6.58059" transform="rotate(-32.8977 1420.29 252.509)" fill="white" fill-opacity="0.5"/>
<rect width="3.06209" height="3.06209" transform="matrix(-0.839642 0.54314 0.54314 0.839642 1391.26 173.367)" fill="white" fill-opacity="0.5"/>
<rect x="1327" y="341.278" width="3.25833" height="3.25833" transform="rotate(-32.8977 1327 341.278)" fill="white" fill-opacity="0.5"/>
<rect x="1221.78" y="298.765" width="6.26244" height="6.26244" transform="rotate(-32.8977 1221.78 298.765)" fill="white"/>
<rect width="2.27427" height="2.27427" transform="matrix(0.839624 -0.543168 0.543113 0.83966 1296.44 266.048)" fill="white"/>
<rect width="7.29255" height="7.29255" transform="matrix(0.839652 -0.543126 0.543155 0.839632 1277.85 288.227)" fill="white"/>
<rect width="4.69163" height="4.69163" transform="matrix(0.839652 -0.543126 0.543155 0.839632 1340.39 145.419)" fill="white"/>
<rect x="1169.43" y="170.221" width="6.58059" height="6.5806" transform="rotate(9.69009 1169.43 170.221)" fill="white" fill-opacity="0.5"/>
<rect x="1188.79" y="76.3665" width="6.58059" height="6.5806" transform="rotate(9.69009 1188.79 76.3665)" fill="white" fill-opacity="0.5"/>
<rect x="1429.79" y="313.366" width="6.58059" height="6.5806" transform="rotate(9.69009 1429.79 313.366)" fill="white" fill-opacity="0.5"/>
<rect x="995.793" y="224.366" width="6.58059" height="6.5806" transform="rotate(9.69009 995.793 224.366)" fill="white" fill-opacity="0.5"/>
<rect width="3.06209" height="3.06209" transform="matrix(-0.985732 -0.168319 -0.168319 0.985733 1270.39 104.414)" fill="white" fill-opacity="0.5"/>
<rect x="1259.91" y="177.062" width="6.61823" height="6.61823" transform="rotate(9.69009 1259.91 177.062)" fill="white" fill-opacity="0.5"/>
<rect x="1040.67" y="172.443" width="3.25833" height="3.25833" transform="rotate(9.69009 1040.67 172.443)" fill="white" fill-opacity="0.5"/>
<rect x="991.464" y="72.8994" width="3.25833" height="3.25833" transform="rotate(9.69009 991.464 72.8994)" fill="white"/>
<rect width="2.27427" height="2.27427" transform="matrix(0.985735 0.168305 -0.168333 0.98573 1069.08 96.3766)" fill="white"/>
<rect x="1039.87" y="103.13" width="4.24306" height="4.24306" transform="rotate(9.69009 1039.87 103.13)" fill="white"/>
<rect x="1039.4" y="103.366" width="4.24306" height="4.24306" transform="rotate(9.69009 1039.4 103.366)" fill="white"/>
<rect x="1141.4" y="242.366" width="4.24306" height="4.24306" transform="rotate(9.69009 1141.4 242.366)" fill="white"/>
<rect x="1367.4" y="91.3662" width="4.24306" height="4.24306" transform="rotate(9.69009 1367.4 91.3662)" fill="white"/>
<rect x="1077.4" y="54.3662" width="4.24306" height="4.24306" transform="rotate(9.69009 1077.4 54.3662)" fill="white"/>
<rect x="1109.85" y="837.279" width="3.25833" height="3.25833" transform="rotate(-64.1386 1109.85 837.279)" fill="white" fill-opacity="0.5"/>
<rect x="1159.81" y="783.322" width="6.5806" height="6.5806" transform="rotate(-64.1386 1159.81 783.322)" fill="white" fill-opacity="0.5"/>
<rect width="3.06209" height="3.06209" transform="matrix(-0.436196 0.899852 0.899852 0.436196 1124.73 668.03)" fill="white" fill-opacity="0.5"/>
<rect width="3.06209" height="3.06209" transform="matrix(-0.436196 0.899852 0.899852 0.436196 1093.94 730.715)" fill="white" fill-opacity="0.5"/>
<rect width="3.25833" height="3.25833" transform="matrix(0.436237 -0.899832 0.899871 0.436155 1196.07 696.771)" fill="white" fill-opacity="0.5"/>
<rect x="1126.09" y="907.604" width="3.25833" height="3.25833" transform="rotate(-64.1386 1126.09 907.604)" fill="white" fill-opacity="0.5"/>
<rect x="1014.07" y="925.828" width="6.26244" height="6.26244" transform="rotate(-64.1386 1014.07 925.828)" fill="white"/>
<rect width="2.27427" height="2.27427" transform="matrix(0.436167 -0.899866 0.899837 0.436226 1060.94 859.131)" fill="white"/>
<rect width="7.29255" height="7.29255" transform="matrix(0.436212 -0.899844 0.899859 0.43618 1056.55 887.737)" fill="white"/>
<rect width="4.69163" height="4.69163" transform="matrix(0.436212 -0.899844 0.899859 0.43618 1035.96 733.201)" fill="white"/>
<rect width="4.69163" height="4.69163" transform="matrix(0.436212 -0.899844 0.899859 0.43618 1231.11 732.359)" fill="white"/>
<rect x="902.646" y="843.077" width="6.5806" height="6.5806" transform="rotate(-21.5508 902.646 843.077)" fill="white" fill-opacity="0.5"/>
<rect x="870.528" y="752.786" width="6.5806" height="6.5806" transform="rotate(-21.5508 870.528 752.786)" fill="white" fill-opacity="0.5"/>
<rect x="1199.5" y="830.428" width="6.5806" height="6.5806" transform="rotate(-21.5508 1199.5 830.428)" fill="white" fill-opacity="0.5"/>
<rect x="782.272" y="979.423" width="6.5806" height="6.5806" transform="rotate(-21.5508 782.272 979.423)" fill="white" fill-opacity="0.5"/>
<rect width="3.06209" height="3.06209" transform="matrix(-0.930092 0.367326 0.367326 0.930092 954.837 734.449)" fill="white" fill-opacity="0.5"/>
<rect x="983.554" y="802" width="6.61823" height="6.61823" transform="rotate(-21.5508 983.554 802)" fill="white" fill-opacity="0.5"/>
<rect x="793.713" y="911.754" width="3.25833" height="3.25833" transform="rotate(-21.5508 793.713 911.754)" fill="white" fill-opacity="0.5"/>
<rect x="700.015" y="852.165" width="3.25833" height="3.25833" transform="rotate(-21.5508 700.015 852.165)" fill="white"/>
<rect width="2.27427" height="2.27427" transform="matrix(0.930087 -0.367339 0.367313 0.930097 778.554 831.982)" fill="white"/>
<rect x="757.082" y="852.906" width="4.24306" height="4.24306" transform="rotate(-21.5508 757.082 852.906)" fill="white"/>
<rect x="756.802" y="853.352" width="4.24306" height="4.24306" transform="rotate(-21.5508 756.802 853.352)" fill="white"/>
<rect x="916.102" y="919.295" width="4.24306" height="4.24306" transform="rotate(-21.5508 916.102 919.295)" fill="white"/>
<rect x="1031.02" y="672.979" width="4.24306" height="4.24306" transform="rotate(-21.5508 1031.02 672.979)" fill="white"/>
<rect x="763.878" y="791.749" width="4.24306" height="4.24306" transform="rotate(-21.5508 763.878 791.749)" fill="white"/>
<rect x="349.594" y="743.73" width="3.25833" height="3.25833" transform="rotate(-32.8977 349.594 743.73)" fill="white" fill-opacity="0.5"/>
<rect x="420.295" y="723.509" width="6.5806" height="6.58059" transform="rotate(-32.8977 420.295 723.509)" fill="white" fill-opacity="0.5"/>
<rect width="3.06209" height="3.06209" transform="matrix(-0.839642 0.54314 0.54314 0.839642 450.091 606.738)" fill="white" fill-opacity="0.5"/>
<rect width="3.06209" height="3.06209" transform="matrix(-0.839642 0.54314 0.54314 0.839642 391.258 644.367)" fill="white" fill-opacity="0.5"/>
<rect width="3.25833" height="3.25833" transform="matrix(0.839667 -0.543102 0.543179 0.839617 496.183 668.313)" fill="white" fill-opacity="0.5"/>
<rect x="327.003" y="812.278" width="3.25833" height="3.25833" transform="rotate(-32.8977 327.003 812.278)" fill="white" fill-opacity="0.5"/>
<rect x="221.779" y="769.765" width="6.26244" height="6.26244" transform="rotate(-32.8977 221.779 769.765)" fill="white"/>
<rect width="2.27427" height="2.27427" transform="matrix(0.839624 -0.543168 0.543113 0.83966 296.444 737.048)" fill="white"/>
<rect width="7.29255" height="7.29255" transform="matrix(0.839652 -0.543126 0.543155 0.839632 277.852 759.227)" fill="white"/>
<rect width="4.69163" height="4.69163" transform="matrix(0.839652 -0.543126 0.543155 0.839632 340.393 616.419)" fill="white"/>
<rect width="4.69163" height="4.69163" transform="matrix(0.839652 -0.543126 0.543155 0.839632 507.687 716.915)" fill="white"/>
<rect x="169.426" y="641.221" width="6.58059" height="6.5806" transform="rotate(9.69009 169.426 641.221)" fill="white" fill-opacity="0.5"/>
<rect x="188.794" y="547.366" width="6.58059" height="6.5806" transform="rotate(9.69009 188.794 547.366)" fill="white" fill-opacity="0.5"/>
<rect x="429.794" y="784.366" width="6.58059" height="6.5806" transform="rotate(9.69009 429.794 784.366)" fill="white" fill-opacity="0.5"/>
<rect x="-4.20703" y="695.366" width="6.58059" height="6.5806" transform="rotate(9.69009 -4.20703 695.366)" fill="white" fill-opacity="0.5"/>
<rect width="3.06209" height="3.06209" transform="matrix(-0.985732 -0.168319 -0.168319 0.985733 270.387 575.414)" fill="white" fill-opacity="0.5"/>
<rect x="259.905" y="648.062" width="6.61823" height="6.61823" transform="rotate(9.69009 259.905 648.062)" fill="white" fill-opacity="0.5"/>
<rect x="40.6699" y="643.443" width="3.25833" height="3.25833" transform="rotate(9.69009 40.6699 643.443)" fill="white" fill-opacity="0.5"/>
<rect width="2.27427" height="2.27427" transform="matrix(0.985735 0.168305 -0.168333 0.98573 69.0811 567.377)" fill="white"/>
<rect x="39.8711" y="574.13" width="4.24306" height="4.24306" transform="rotate(9.69009 39.8711 574.13)" fill="white"/>
<rect x="39.4004" y="574.366" width="4.24306" height="4.24306" transform="rotate(9.69009 39.4004 574.366)" fill="white"/>
<rect x="141.4" y="713.366" width="4.24306" height="4.24306" transform="rotate(9.69009 141.4 713.366)" fill="white"/>
<rect x="367.4" y="562.366" width="4.24306" height="4.24306" transform="rotate(9.69009 367.4 562.366)" fill="white"/>
<rect x="77.4004" y="525.366" width="4.24306" height="4.24306" transform="rotate(9.69009 77.4004 525.366)" fill="white"/>
<rect x="348.724" y="180.708" width="3.25833" height="3.25833" transform="rotate(-64.1386 348.724 180.708)" fill="white" fill-opacity="0.5"/>
<rect x="398.685" y="126.752" width="6.5806" height="6.5806" transform="rotate(-64.1386 398.685 126.752)" fill="white" fill-opacity="0.5"/>
<rect width="3.06209" height="3.06209" transform="matrix(-0.436196 0.899852 0.899852 0.436196 363.598 11.4595)" fill="white" fill-opacity="0.5"/>
<rect width="3.06209" height="3.06209" transform="matrix(-0.436196 0.899852 0.899852 0.436196 332.812 74.1448)" fill="white" fill-opacity="0.5"/>
<rect width="3.25833" height="3.25833" transform="matrix(0.436237 -0.899832 0.899871 0.436155 434.941 40.2006)" fill="white" fill-opacity="0.5"/>
<rect x="364.959" y="251.034" width="3.25833" height="3.25833" transform="rotate(-64.1386 364.959 251.034)" fill="white" fill-opacity="0.5"/>
<rect x="252.944" y="269.258" width="6.26244" height="6.26244" transform="rotate(-64.1386 252.944 269.258)" fill="white"/>
<rect width="2.27427" height="2.27427" transform="matrix(0.436167 -0.899866 0.899837 0.436226 299.814 202.56)" fill="white"/>
<rect width="7.29255" height="7.29255" transform="matrix(0.436212 -0.899844 0.899859 0.43618 295.421 231.166)" fill="white"/>
<rect width="4.69163" height="4.69163" transform="matrix(0.436212 -0.899844 0.899859 0.43618 274.828 76.6306)" fill="white"/>
<rect width="4.69163" height="4.69163" transform="matrix(0.436212 -0.899844 0.899859 0.43618 469.983 75.7888)" fill="white"/>
<rect x="141.516" y="186.506" width="6.5806" height="6.5806" transform="rotate(-21.5508 141.516 186.506)" fill="white" fill-opacity="0.5"/>
<rect x="109.398" y="96.2158" width="6.5806" height="6.5806" transform="rotate(-21.5508 109.398 96.2158)" fill="white" fill-opacity="0.5"/>
<rect x="438.369" y="173.858" width="6.5806" height="6.5806" transform="rotate(-21.5508 438.369 173.858)" fill="white" fill-opacity="0.5"/>
<rect x="21.1426" y="322.852" width="6.5806" height="6.5806" transform="rotate(-21.5508 21.1426 322.852)" fill="white" fill-opacity="0.5"/>
<rect width="3.06209" height="3.06209" transform="matrix(-0.930092 0.367326 0.367326 0.930092 193.707 77.8788)" fill="white" fill-opacity="0.5"/>
<rect x="222.424" y="145.429" width="6.61823" height="6.61823" transform="rotate(-21.5508 222.424 145.429)" fill="white" fill-opacity="0.5"/>
<rect x="32.583" y="255.183" width="3.25833" height="3.25833" transform="rotate(-21.5508 32.583 255.183)" fill="white" fill-opacity="0.5"/>
<rect width="2.27427" height="2.27427" transform="matrix(0.930087 -0.367339 0.367313 0.930097 17.4238 175.411)" fill="white"/>
<rect x="-4.04785" y="196.336" width="4.24306" height="4.24306" transform="rotate(-21.5508 -4.04785 196.336)" fill="white"/>
<rect x="-4.32812" y="196.781" width="4.24306" height="4.24306" transform="rotate(-21.5508 -4.32812 196.781)" fill="white"/>
<rect x="154.972" y="262.724" width="4.24306" height="4.24306" transform="rotate(-21.5508 154.972 262.724)" fill="white"/>
<rect x="269.886" y="16.4083" width="4.24306" height="4.24306" transform="rotate(-21.5508 269.886 16.4083)" fill="white"/>
<rect x="2.74805" y="135.178" width="4.24306" height="4.24306" transform="rotate(-21.5508 2.74805 135.178)" fill="white"/>
</g>
<defs>
<linearGradient id="paint0_linear_1276_2171" x1="357" y1="542.992" x2="1151.07" y2="564.434" gradientUnits="userSpaceOnUse">
<stop stop-color="#010E05"/>
<stop offset="1" stop-color="#020605"/>
</linearGradient>
<clipPath id="clip0_1276_2171">
<rect width="1440" height="986" fill="white"/>
</clipPath>
</defs>
</svg>
